# xmcd
#
# Track frame offsets: 
#        150
#        17801
#        35047
#        52683
#
# Disc length: 931 seconds
#
# Revision: 1
# Processed by: cddbd v1.5.2PL0 Copyright (c) Steve Scherf et al.
# Submitted via: ExactAudioCopy v1.0b3
#
DISCID=2803a104
DTITLE=マリ子(CV.伊藤未来) - 細胞プロミネンス
DYEAR=2015
DGENRE=Anime
TTITLE0=細胞プロミネンス
TTITLE1=Take you to My PARTY!!
TTITLE2=細胞プロミネンス(Instrumental)
TTITLE3=Take you to My PARTY!!(Instrumental)
EXTD=
EXTT0=
EXTT1=
EXTT2=
EXTT3=
PLAYORDER=
